.
 
http://www.scenetime.com    -  Hottest private tracker on the net. !!!

New release on http://www.scenetime.com

        Seed back for speed


...................................NFO:.................................................  
[pre]ooooo ooo        ooooo       .o.         .oooooo.     o8o  ooooo      ooo oooooooooooo 
      888' `88.       .888'      .888.       d8P'  `Y8b    `"'  `888b.     `8' `888'     `8 
      888   888b     d'888      .8"888.     888           oooo   8 `88b.    8   888         
      888   8 Y88. .P  888     .8' `888.    888           `888   8   `88b.  8   888oooo8    
      888   8  `888'   888    .88ooo8888.   888     ooooo  888   8     `88b.8   888    "    
      888   8    Y     888   .8'     `888.  `88.    .88'   888   8       `888   888       o 
     o888o o8o        o888o o88o     o8888o  `Y8bood8P'   o888o o8o        `8  o888ooooood8  
                                                



                  Another Fine Release Brought to you from - IMAGiNE                   
                                                 

******************************************************************************************
                   Bridesmaids UNRATED 2011 BRRiP AC3 XViD - IMAGiNE               
******************************************************************************************

Ripper ...........: IMAGiNE              IMDB Rating.......: 7.4/10                             
Video Codec.......: XViD                 Release Date......: 06/09/11
Audio Codec.......: AC3                  Theatre Date......: 15/05/11
Audio Bitrate.....: 448                  Runtime...........: 2h 10min
Subtitles.........: NIL                  Language..........: ENGLISH
Resolution........: 720 x 304            IMDb URL..........: http://www.imdb.com/title/tt1478338/


[color=yellow]DETAILS:[/color]

Video
ID                               : 0
Format                           : MPEG-4 Visual
Format profile                   : Advanced Simple@L5
Format settings, BVOP            : 2
Format settings, QPel            : No
Format settings, GMC             : No warppoints
Format settings, Matrix          : Default (MPEG)
Muxing mode                      : Packed bitstream
Codec ID                         : XVID
Codec ID/Hint                    : XviD
Duration                         : 2h 10mn
Bit rate                         : 1 789 Kbps
Width                            : 720 pixels
Height                           : 304 pixels
Display aspect ratio             : 2.35:1
Frame rate                       : 23.976 fps
Color space                      : YUV
Chroma subsampling               : 4:2:0
Bit depth                        : 8 bits
Scan type                        : Progressive
Compression mode                 : Lossy
Bits/(Pixel*Frame)               : 0.341
Stream size                      : 1.63 GiB (80%)
Writing library                  : XviD 64

Audio
ID                               : 1
Format                           : AC-3
Format/Info                      : Audio Coding 3
Mode extension                   : CM (complete main)
Codec ID                         : 2000
Duration                         : 2h 10mn
Bit rate mode                    : Constant
Bit rate                         : 448 Kbps
Channel(s)                       : 6 channels
Channel positions                : Front: L C R, Side: L R, LFE
Sampling rate                    : 48.0 KHz
Bit depth                        : 16 bits
Compression mode                 : Lossy
Stream size                      : 418 MiB (20%)
Alignment                        : Aligned on interleaves
Interleave, duration             : 42 ms (1.00 video frame)
Interleave, preload duration     : 512 ms



[color=yellow]SOURCES:[/color]

VIDEO: ............. Bridesmaids.720p.BluRay.x264-REFiNED
AUDIO: ............. Bridesmaids.720p.BluRay.x264-REFiNED

[color=yellow]NOTES:[/color]

Straight forward rip with just denoiser,sharpen and resize used.
Audio converted to AC3 and then remuxed.

Enjoy folks :)

[color=yellow]SCREENS:[/color]

[IMG]http://i.imgur.com/hbVFB.png[/IMG]
[IMG]http://i.imgur.com/EiXts.png[/IMG]
[IMG]http://i.imgur.com/kdNII.png[/IMG]
[IMG]http://i.imgur.com/Qvgtc.png[/IMG]


[color=yellow]GREETS:[/color]

FLAWL3SS,KINOPARK,Rx,ELEKTRI4KA,ADDiCTED,Autotron,CiNEDUB,CRYS
And to all the other p2p grps past and present 

[COLOR=RED]Looking for these,syncers,cammers,audio,silver supplier.....Have anything to offer????......
Contact us imaginegroup@hushmail.com[/COLOR][/pre]